<svg width="47" height="47" viewBox="0 0 47 47" fill="none" xmlns="http://www.w3.org/2000/svg">
<path d="M2.40213 22.2376L16.5434 17.0901L21.6875 2.95218C21.8055 2.62831 22.0202 2.34855 22.3025 2.15088C22.5849 1.9532 22.9212 1.84717 23.2659 1.84717C23.6106 1.84717 23.9469 1.9532 24.2293 2.15088C24.5116 2.34855 24.7264 2.62831 24.8443 2.95218L29.9918 17.0934L44.1331 22.2376C44.4569 22.3555 44.7367 22.5702 44.9344 22.8526C45.132 23.1349 45.2381 23.4713 45.2381 23.816C45.2381 24.1606 45.132 24.497 44.9344 24.7793C44.7367 25.0617 44.4569 25.2764 44.1331 25.3943L29.9884 30.5418L24.8443 44.6831C24.7264 45.007 24.5116 45.2867 24.2293 45.4844C23.9469 45.6821 23.6106 45.7881 23.2659 45.7881C22.9212 45.7881 22.5849 45.6821 22.3025 45.4844C22.0202 45.2867 21.8055 45.007 21.6875 44.6831L16.54 30.5385L2.40213 25.3943C2.07826 25.2764 1.7985 25.0617 1.60083 24.7793C1.40315 24.497 1.29712 24.1606 1.29712 23.816C1.29712 23.4713 1.40315 23.1349 1.60083 22.8526C1.7985 22.5702 2.07826 22.3555 2.40213 22.2376Z" stroke="white" stroke-opacity="0.21" stroke-width="2" stroke-linecap="round" stroke-linejoin="round"/>
</svg>
