<svg width="22" height="22" viewBox="0 0 22 22" fill="none" xmlns="http://www.w3.org/2000/svg">
<path d="M7 4.1L4.5 5.5L5.9 3L4.5 0.5L7 1.9L9.5 0.5L8.1 3L9.5 5.5L7 4.1ZM19 13.9L21.5 12.5L20.1 15L21.5 17.5L19 16.1L16.5 17.5L17.9 15L16.5 12.5L19 13.9ZM21.5 0.5L20.1 3L21.5 5.5L19 4.1L16.5 5.5L17.9 3L16.5 0.5L19 1.9L21.5 0.5ZM12.84 11.28L15.28 8.84L13.16 6.72L10.72 9.16L12.84 11.28ZM13.87 5.79L16.21 8.13C16.6 8.5 16.6 9.15 16.21 9.54L4.54 21.21C4.15 21.6 3.5 21.6 3.13 21.21L0.789999 18.87C0.399999 18.5 0.399999 17.85 0.789999 17.46L12.46 5.79C12.85 5.4 13.5 5.4 13.87 5.79Z" fill="white"/>
</svg>
